<svg width="67" height="67" viewBox="0 0 67 67" fill="none" xmlns="http://www.w3.org/2000/svg">
<path d="M33.4989 63.5265C50.0825 63.5265 63.5261 50.0828 63.5261 33.4991C63.5261 16.9154 50.0825 3.47168 33.4989 3.47168C16.9154 3.47168 3.4718 16.9154 3.4718 33.4991C3.4718 50.0828 16.9154 63.5265 33.4989 63.5265Z" fill="#FEDE7E"/>
<path fill-rule="evenodd" clip-rule="evenodd" d="M59.1616 31.3586C61.9941 23.3153 64.7481 15.9731 60.5276 12.9475L51.6379 16.6649C46.1112 10.587 40.1898 9.63568 33.9938 12.2587C27.3684 9.73861 21.1821 9.9408 16.0244 16.5218L7.53725 12.9725C3.42402 15.9207 5.93434 22.9682 8.68645 30.7691C7.11582 36.9231 8.37342 42.6978 13.8399 49.1004C18.7533 52.7088 20.8392 51.8068 26.3757 57.9773C30.5115 61.8988 37.7513 61.7508 40.8993 58.1954C45.909 52.7392 48.0832 52.7118 52.8986 49.6442C58.4089 43.9396 60.2944 37.8214 59.1622 31.358L59.1616 31.3586Z" stroke="#FEDE7E" stroke-width="0.01389" stroke-miterlimit="2.61313" stroke-linecap="round" stroke-linejoin="round"/>
<path fill-rule="evenodd" clip-rule="evenodd" d="M59.1616 31.3586C61.9941 23.3153 64.7481 15.9731 60.5276 12.9475L51.6379 16.6649C46.1112 10.587 40.1898 9.63568 33.9938 12.2587C27.3684 9.73861 21.1821 9.9408 16.0244 16.5218L7.53725 12.9725C3.42402 15.9207 5.93434 22.9682 8.68645 30.7691C7.11582 36.9231 8.37342 42.6978 13.8399 49.1004C18.7533 52.7088 20.8392 51.8068 26.3757 57.9773C30.5115 61.8988 37.7513 61.7508 40.8993 58.1954C45.909 52.7392 48.0832 52.7118 52.8986 49.6442C58.4089 43.9396 60.2944 37.8214 59.1622 31.358L59.1616 31.3586Z" fill="black"/>
<path fill-rule="evenodd" clip-rule="evenodd" d="M20.8899 24.6177C23.6183 24.3065 25.142 25.0495 25.9447 26.4228C22.8284 28.8028 21.1177 28.2553 20.8899 24.6177Z" fill="white"/>
<path fill-rule="evenodd" clip-rule="evenodd" d="M22.7561 25.7857C23.4747 25.7035 23.8755 25.8996 24.0868 26.2607C23.2664 26.8874 22.8158 26.7431 22.7561 25.7857Z" fill="black"/>
<path fill-rule="evenodd" clip-rule="evenodd" d="M47.0653 24.6177C44.3369 24.3065 42.8132 25.0495 42.0105 26.4228C45.1268 28.8028 46.8375 28.2553 47.0653 24.6177Z" fill="white"/>
<path fill-rule="evenodd" clip-rule="evenodd" d="M23.5664 41.2127L34.0212 36.5537L44.325 41.2888C42.5607 46.0933 40.5291 47.6475 40.2514 51.3253C38.5937 59.7931 27.9007 58.9191 26.5213 50.0629C26.3331 47.723 25.4013 45.8485 23.5664 41.2133V41.2127Z" fill="#4D4D4D"/>
<path d="M33.5468 57.8606C37.5765 57.8606 40.8433 54.7269 40.8433 50.8612C40.8433 46.9955 37.5765 43.8618 33.5468 43.8618C29.517 43.8618 26.2502 46.9955 26.2502 50.8612C26.2502 54.7269 29.517 57.8606 33.5468 57.8606Z" fill="#B3B3B3"/>
<path fill-rule="evenodd" clip-rule="evenodd" d="M26.1608 42.8634L29.3203 42.4121L27.0639 49.9937L26.1608 42.8634Z" fill="white"/>
<path fill-rule="evenodd" clip-rule="evenodd" d="M40.9619 42.8634L37.803 42.4121L40.0593 49.9937L40.9619 42.8634Z" fill="white"/>
<path fill-rule="evenodd" clip-rule="evenodd" d="M20.4639 39.7078C18.8622 37.7126 19.0668 35.6274 20.8049 35.6182C19.917 34.223 20.7447 32.3771 22.2038 33.329C22.78 31.2163 23.8981 30.4581 25.5576 31.5951L32.1977 37.2711L33.7324 42.4161C34.3036 44.913 22.6003 48.6743 21.6375 42.8673C20.1637 41.7242 19.5918 40.0397 20.4645 39.7084L20.4639 39.7078Z" fill="#EE8C1F"/>
<path fill-rule="evenodd" clip-rule="evenodd" d="M46.8313 39.7078C48.433 37.7126 48.2284 35.6274 46.4902 35.6182C47.3782 34.223 46.5505 32.3771 45.0914 33.329C44.5152 31.2163 43.3971 30.4581 41.7375 31.5951L35.0981 37.2711L33.5635 42.4161C32.9922 44.913 44.6955 48.6743 45.6583 42.8673C47.1321 41.7242 47.704 40.0397 46.8313 39.7084V39.7078Z" fill="#EE8C1F"/>
<path fill-rule="evenodd" clip-rule="evenodd" d="M29.2236 36.8154C30.0659 32.5456 37.9483 33.4427 37.9787 36.7253L33.7364 42.2308L29.2236 36.8154Z" fill="white"/>
<path fill-rule="evenodd" clip-rule="evenodd" d="M30.5546 36.9609C31.1398 33.9938 36.6184 34.6175 36.6391 36.8982L33.6909 40.7246L30.5546 36.9609Z" fill="black"/>
<path d="M23.7817 36.5034C24.229 36.5034 24.5917 36.1004 24.5917 35.6033C24.5917 35.1061 24.229 34.7031 23.7817 34.7031C23.3343 34.7031 22.9717 35.1061 22.9717 35.6033C22.9717 36.1004 23.3343 36.5034 23.7817 36.5034Z" fill="black"/>
<path d="M22.5251 38.3022C22.9724 38.3022 23.3351 37.8992 23.3351 37.4021C23.3351 36.905 22.9724 36.502 22.5251 36.502C22.0777 36.502 21.7151 36.905 21.7151 37.4021C21.7151 37.8992 22.0777 38.3022 22.5251 38.3022Z" fill="black"/>
<path d="M25.2239 39.0234C25.6713 39.0234 26.0339 38.6204 26.0339 38.1233C26.0339 37.6261 25.6713 37.2231 25.2239 37.2231C24.7766 37.2231 24.4139 37.6261 24.4139 38.1233C24.4139 38.6204 24.7766 39.0234 25.2239 39.0234Z" fill="black"/>
<path d="M23.2464 41.187C23.6937 41.187 24.0564 40.784 24.0564 40.2868C24.0564 39.7897 23.6937 39.3867 23.2464 39.3867C22.799 39.3867 22.4364 39.7897 22.4364 40.2868C22.4364 40.784 22.799 41.187 23.2464 41.187Z" fill="black"/>
<path d="M43.9206 35.9609C44.3679 35.9609 44.7306 35.5579 44.7306 35.0608C44.7306 34.5636 44.3679 34.1606 43.9206 34.1606C43.4732 34.1606 43.1106 34.5636 43.1106 35.0608C43.1106 35.5579 43.4732 35.9609 43.9206 35.9609Z" fill="black"/>
<path d="M45.1772 37.767C45.6245 37.767 45.9872 37.364 45.9872 36.8669C45.9872 36.3698 45.6245 35.9668 45.1772 35.9668C44.7298 35.9668 44.3672 36.3698 44.3672 36.8669C44.3672 37.364 44.7298 37.767 45.1772 37.767Z" fill="black"/>
<path d="M42.4787 38.4809C42.926 38.4809 43.2887 38.0779 43.2887 37.5808C43.2887 37.0837 42.926 36.6807 42.4787 36.6807C42.0314 36.6807 41.6687 37.0837 41.6687 37.5808C41.6687 38.0779 42.0314 38.4809 42.4787 38.4809Z" fill="black"/>
<path d="M44.4563 40.644C44.9037 40.644 45.2663 40.241 45.2663 39.7439C45.2663 39.2467 44.9037 38.8438 44.4563 38.8438C44.009 38.8438 43.6464 39.2467 43.6464 39.7439C43.6464 40.241 44.009 40.644 44.4563 40.644Z" fill="black"/>
<path fill-rule="evenodd" clip-rule="evenodd" d="M13.5972 18.6343L12.4992 20.8803L8.57898 16.0801L13.5972 18.6343Z" fill="white"/>
<path fill-rule="evenodd" clip-rule="evenodd" d="M54.9087 18.7461L56.0067 20.9915L59.9275 16.1919L54.9087 18.7461Z" fill="white"/>
<path d="M33.5468 58.3591C37.5765 58.3591 40.8433 55.2254 40.8433 51.3598C40.8433 47.4941 37.5765 44.3604 33.5468 44.3604C29.517 44.3604 26.2502 47.4941 26.2502 51.3598C26.2502 55.2254 29.517 58.3591 33.5468 58.3591Z" fill="black"/>
<path fill-rule="evenodd" clip-rule="evenodd" d="M45.3559 25.7857C44.6373 25.7035 44.2366 25.8996 44.0253 26.2607C44.8456 26.8874 45.2963 26.7431 45.3559 25.7857Z" fill="black"/>
<path fill-rule="evenodd" clip-rule="evenodd" d="M23.2167 23.3517C25.9286 23.6276 27.7002 23.6203 29.2635 25.6653L26.364 29.3858L28.1966 26.1854C28.6484 24.7816 26.5522 24.0186 23.2167 23.3511V23.3517Z" fill="#FFFFCC"/>
<path fill-rule="evenodd" clip-rule="evenodd" d="M44.5781 23.3517C41.8662 23.6276 40.0946 23.6203 38.5312 25.6653L41.4307 29.3858L39.5982 26.1854C39.1463 24.7816 41.2426 24.0186 44.5781 23.3511V23.3517Z" fill="#FFFFCC"/>
<path fill-rule="evenodd" clip-rule="evenodd" d="M34.7347 36.8907L33.7426 36.3755L33.6099 39.1435L34.7347 36.8907Z" fill="white"/>
</svg>
